<svg width="615" height="615" xmlns="http://www.w3.org/2000/svg"><g stroke-linecap="round" stroke="#fff" fill="none"><path stroke-linejoin="round" stroke-width="24.6" d="M-1916 280c3-119 36-228 107-333a601 601 0 0 1 107 333" transform="matrix(.958 .466 -.456 .988 2165 912)"/><path stroke-linejoin="round" stroke-width="13.9" d="M-1831 491c11 19-23 31 16 55 16-45 111-49 8-110-34 11-104 78-24 55z" transform="matrix(.958 .466 -.456 .988 2165 912)"/><path stroke-width="13.9" d="M-1919 313h220m-23 30h-174" transform="matrix(.958 .466 -.456 .988 2165 912)"/><path stroke-linejoin="round" stroke-width="24.6" d="M-1768 426c-1-2-23-55-41-55s-40 53-41 55" transform="matrix(.958 .466 -.456 .988 2165 912)"/></g></svg>